<svg width="1432" height="355" viewBox="0 0 1432 355" fill="none" xmlns="http://www.w3.org/2000/svg">
<g filter="url(#filter0_d_6_1727)">
<path d="M-16.1328 332.555C-16.1328 332.555 156.341 237.607 276.754 229.422C397.167 221.237 433.184 297.562 563.656 293.145C694.129 288.727 686.873 283.383 751.902 279.988C816.932 276.593 827.146 279.988 968.965 279.988C1110.78 279.988 1134.88 357.04 1250.46 299.98C1366.04 242.921 1311.14 137.328 1365.37 108.777C1419.61 80.2266 1396.87 62.25 1431.24 22.0078" stroke="#3D3D3D" stroke-width="4"/>
</g>
<path fill-rule="evenodd" clip-rule="evenodd" d="M35 315C39.4183 315 43 311.418 43 307C43 302.582 39.4183 299 35 299C30.5817 299 27 302.582 27 307C27 311.418 30.5817 315 35 315Z" fill="#06B5C0"/>
<path fill-rule="evenodd" clip-rule="evenodd" d="M1401 87C1405.42 87 1409 83.4183 1409 79C1409 74.5817 1405.42 71 1401 71C1396.58 71 1393 74.5817 1393 79C1393 83.4183 1396.58 87 1401 87Z" fill="#06B5C0"/>
<path fill-rule="evenodd" clip-rule="evenodd" d="M1349 132C1353.42 132 1357 128.418 1357 124C1357 119.582 1353.42 116 1349 116C1344.58 116 1341 119.582 1341 124C1341 128.418 1344.58 132 1349 132Z" fill="#06B5C0"/>
<defs>
<filter id="filter0_d_6_1727" x="-37.095" y="0.708984" width="1489.86" height="353.597" filterUnits="userSpaceOnUse" color-interpolation-filters="sRGB">
<feFlood flood-opacity="0" result="BackgroundImageFix"/>
<feColorMatrix in="SourceAlpha" type="matrix" values="0 0 0 0 0 0 0 0 0 0 0 0 0 0 0 0 0 0 127 0" result="hardAlpha"/>
<feOffset/>
<feGaussianBlur stdDeviation="10"/>
<feColorMatrix type="matrix" values="0 0 0 0 1 0 0 0 0 1 0 0 0 0 1 0 0 0 0.5 0"/>
<feBlend mode="normal" in2="BackgroundImageFix" result="effect1_dropShadow_6_1727"/>
<feBlend mode="normal" in="SourceGraphic" in2="effect1_dropShadow_6_1727" result="shape"/>
</filter>
</defs>
</svg>
